# File created by Blade
# Date/Time:  Thu Jan 22 18:25:17 2015
#---------------------------------------------------------
:version 1.10
:name HOM
:units
  mass 1.0
  length 1.000000
  angle deg
:documentation
     Acclaim Skeleton File
:root
   axis xyz
   order TX TY TZ RX RY RZ
   position 0.000000 0.000000 0.000000
   orientation 0 0 0
:bonedata
   begin
      id 1
      name RightUpLeg_dum
      direction -1.000000 0.000000 0.000000
      length 4.478084
      axis 0.0 0.0 0.0 xyz
   end
   begin
      id 2
      name LeftUpLeg_dum
      direction 1.000000 0.000000 0.000000
      length 4.478084
      axis 0.0 0.0 0.0 xyz
   end
   begin
      id 3
      name Spine_dum
      direction 0.000000 1.000000 0.000000
      length 6.068208
      axis 0.0 0.0 0.0 xyz
   end
   begin
      id 4
      name RightUpLeg
      direction 0.000000 -1.000000 0.000000
      length 16.405774
      axis 0.0 0.0 0.0 xyz
      dof rx ry rz
   end
   begin
      id 5
      name RightLeg
      direction 0.000000 -1.000000 0.000000
      length 14.644143
      axis 0.0 0.0 0.0 xyz
      dof rx ry rz
   end
   begin
      id 6
      name RightFoot
      direction 0.000000 -0.258819 0.965926
      length 5.806150
      axis 15.0 0.0 0.0 xyz
      dof rx ry rz
   end
   begin
      id 7
      name RightToeBase
      direction 0.000000 0.000000 1.000000
      length 2.952750
      axis 0.0 0.0 0.0 xyz
      dof rx ry rz
   end
   begin
      id 8
      name LeftUpLeg
      direction 0.000000 -1.000000 0.000000
      length 16.405774
      axis 0.0 0.0 0.0 xyz
      dof rx ry rz
   end
   begin
      id 9
      name LeftLeg
      direction 0.000000 -1.000000 0.000000
      length 14.644143
      axis 0.0 0.0 0.0 xyz
      dof rx ry rz
   end
   begin
      id 10
      name LeftFoot
      direction 0.000000 -0.258819 0.965926
      length 5.806150
      axis 15.0 0.0 0.0 xyz
      dof rx ry rz
   end
   begin
      id 11
      name LeftToeBase
      direction 0.000000 0.000000 1.000000
      length 2.952750
      axis 0.0 0.0 0.0 xyz
      dof rx ry rz
   end
   begin
      id 12
      name Spine
      direction 0.000000 1.000000 0.000000
      length 0.000000
      axis 0.0 0.0 0.0 xyz
      dof rx ry rz
   end
   begin
      id 13
      name Spine_dum1
      direction 0.000000 1.000000 0.000000
      length 10.013923
      axis 0.0 0.0 0.0 xyz
   end
   begin
      id 14
      name Spine_dum2
      direction 0.000000 1.000000 0.000000
      length 10.013923
      axis 0.0 0.0 0.0 xyz
   end
   begin
      id 15
      name Spine_dum3
      direction 0.000000 1.000000 0.000000
      length 15.777476
      axis 0.0 0.0 0.0 xyz
   end
   begin
      id 16
      name RightShoulder
      direction -1.000000 0.000000 0.000000
      length 7.190220
      axis 0.0 0.0 90.0 xyz
      dof rx ry rz
   end
   begin
      id 17
      name RightArm
      direction -1.000000 0.000000 0.000000
      length 10.177469
      axis 0.0 0.0 90.0 xyz
      dof rx ry rz
   end
   begin
      id 18
      name RightForeArm
      direction -1.000000 0.000000 0.000000
      length 8.392114
      axis 0.0 0.0 90.0 xyz
      dof ry rz rx
   end
   begin
      id 19
      name RightHand
      direction -1.000000 0.000000 0.000000
      length 0.000000
      axis 0.0 0.0 90.0 xyz
      dof rx ry rz
   end
   begin
      id 20
      name RightHand_dum1
      direction -1.000000 0.000000 0.000000
      length 3.937000
      axis 0.0 0.0 90.0 xyz
   end
   begin
      id 21
      name RightHand_dum2
      direction 0.000000 0.000000 0.000000
      length 0.000000
      axis 0.0 0.0 90.0 xyz
   end
   begin
      id 22
      name RightHandThumb1
      direction 0.000000 0.000000 1.000000
      length 3.937000
      axis 0.0 0.0 90.0 xyz
      dof rx rz ry
   end
   begin
      id 23
      name LeftShoulder
      direction 1.000000 0.000000 0.000000
      length 7.190220
      axis 0.0 0.0 -90.0 xyz
      dof rx ry rz
   end
   begin
      id 24
      name LeftArm
      direction 1.000000 0.000000 0.000000
      length 10.177469
      axis 0.0 0.0 -90.0 xyz
      dof rx ry rz
   end
   begin
      id 25
      name LeftForeArm
      direction 1.000000 0.000000 0.000000
      length 8.392114
      axis 0.0 0.0 -90.0 xyz
      dof ry rz rx
   end
   begin
      id 26
      name LeftHand
      direction 1.000000 0.000000 0.000000
      length 0.000000
      axis 0.0 0.0 -90.0 xyz
      dof rx ry rz
   end
   begin
      id 27
      name LeftHand_dum1
      direction 1.000000 0.000000 0.000000
      length 3.937000
      axis 0.0 0.0 -90.0 xyz
   end
   begin
      id 28
      name LeftHand_dum2
      direction 0.000000 0.000000 0.000000
      length 0.000000
      axis 0.0 0.0 -90.0 xyz
   end
   begin
      id 29
      name LeftHandThumb1
      direction 0.000000 0.000000 1.000000
      length 3.937000
      axis 0.0 0.0 -90.0 xyz
      dof rx rz ry
   end
   begin
      id 30
      name Head
      direction 0.000000 1.000000 0.000000
      length 4.527550
      axis 0.0 0.0 0.0 xyz
      dof rx ry rz
   end
:hierarchy
   begin
      root RightUpLeg_dum LeftUpLeg_dum Spine_dum
      RightUpLeg_dum RightUpLeg
      LeftUpLeg_dum LeftUpLeg
      Spine_dum Spine
      RightUpLeg RightLeg
      RightLeg RightFoot
      RightFoot RightToeBase
      LeftUpLeg LeftLeg
      LeftLeg LeftFoot
      LeftFoot LeftToeBase
      Spine Spine_dum1 Spine_dum2 Spine_dum3
      Spine_dum1 RightShoulder
      Spine_dum2 LeftShoulder
      Spine_dum3 Head
      RightShoulder RightArm
      RightArm RightForeArm
      RightForeArm RightHand
      RightHand RightHand_dum1 RightHand_dum2
      RightHand_dum2 RightHandThumb1
      LeftShoulder LeftArm
      LeftArm LeftForeArm
      LeftForeArm LeftHand
      LeftHand LeftHand_dum1 LeftHand_dum2
      LeftHand_dum2 LeftHandThumb1
   end

# File created by Blade
# Date/Time:  Thu Jan 22 18:25:10 2015
# Frame Rate: 120.000 fps
#------------------------------------------------------
:FULLY-SPECIFIED
:DEGREES
889
root -3.032068 33.239112 0.416008 5.257610 0.042151 2.688543
RightUpLeg 3.028039 -6.269178 -1.870916
RightLeg -0.224722 -0.000000 0.000000
RightFoot -11.488921 -4.394009 3.544678
RightToeBase 5.533565 -0.000000 -0.000000
LeftUpLeg 1.961348 2.376480 1.201663
LeftLeg 1.590344 -0.000000 -0.000000
LeftFoot -10.288554 1.972205 -9.598241
LeftToeBase 8.497347 -0.000000 -0.000000
Spine -9.667958 -0.611794 -1.298453
RightShoulder -29.865983 20.385397 -61.702696
RightArm 125.289738 46.050379 89.770748
RightForeArm 4.352782 -0.000000 143.284230
RightHand 10.416303 -0.000000 -6.177335
RightHandThumb1 -24.326973 -0.000000 -32.862282
LeftShoulder -21.130384 -9.521267 52.507877
LeftArm 30.169487 -67.140191 -28.013089
LeftForeArm -60.253465 0.000000 116.080633
LeftHand -19.064197 0.000000 4.273150
LeftHandThumb1 -26.253704 0.000000 33.147579
Head 19.556122 -6.745614 -4.821746
890
root -3.029839 33.239279 0.415897 5.260818 0.038799 2.691216
RightUpLeg 3.026901 -6.255868 -1.875726
RightLeg -0.230805 -0.000000 0.000000
RightFoot -11.487968 -4.406539 3.567357
RightToeBase 5.527853 -0.000000 -0.000000
LeftUpLeg 1.963741 2.383013 1.196775
LeftLeg 1.579942 -0.000000 -0.000000
LeftFoot -10.277424 1.958826 -9.610234
LeftToeBase 8.452297 -0.000000 -0.000000
Spine -9.670820 -0.618272 -1.288814
RightShoulder -29.867420 20.390611 -61.712746
RightArm 125.299237 46.042028 89.771756
RightForeArm 4.360498 -0.000000 143.285013
RightHand 10.423428 -0.000000 -6.154224
RightHandThumb1 -24.326973 -0.000000 -32.862282
LeftShoulder -21.145408 -9.562723 52.519817
LeftArm 30.050030 -67.084016 -27.905992
LeftForeArm -60.255148 -0.000000 116.090880
LeftHand -19.053996 -0.000000 4.302051
LeftHandThumb1 -26.253704 0.000000 33.147579
Head 19.552573 -6.748471 -4.835886
891
root -3.027609 33.239289 0.415910 5.263230 0.035474 2.693110
RightUpLeg 3.025303 -6.242006 -1.880772
RightLeg -0.233735 -0.000000 0.000000
RightFoot -11.490638 -4.418809 3.562876
RightToeBase 5.536894 -0.000000 -0.000000
LeftUpLeg 1.966707 2.364059 1.190797
LeftLeg 1.571486 -0.000000 -0.000000
LeftFoot -10.262130 1.953217 -9.682774
LeftToeBase 8.367790 -0.000000 -0.000000
Spine -9.669841 -0.619448 -1.278641
RightShoulder -29.876024 20.395584 -61.725969
RightArm 125.311995 46.042974 89.772831
RightForeArm 4.354186 -0.000000 143.283623
RightHand 10.425465 -0.000000 -6.135113
RightHandThumb1 -24.326973 -0.000000 -32.862282
LeftShoulder -21.161521 -9.585653 52.526201
LeftArm 29.959815 -67.052660 -27.833851
LeftForeArm -60.254775 -0.000000 116.100429
LeftHand -19.062037 -0.000000 4.287364
LeftHandThumb1 -26.253704 0.000000 33.147579
Head 19.541548 -6.767291 -4.858718
892
root -3.025039 33.239393 0.416284 5.264481 0.029196 2.696705
RightUpLeg 3.028569 -6.230124 -1.889304
RightLeg -0.244748 -0.000000 0.000000
RightFoot -11.483403 -4.422015 3.584538
RightToeBase 5.541535 -0.000000 -0.000000
LeftUpLeg 1.968618 2.363539 1.183135
LeftLeg 1.567409 -0.000000 -0.000000
LeftFoot -10.277063 1.975018 -9.608137
LeftToeBase 8.456836 -0.000000 -0.000000
Spine -9.672857 -0.616366 -1.273236
RightShoulder -29.871598 20.393463 -61.726471
RightArm 125.325987 46.055995 89.764893
RightForeArm 4.353151 -0.000000 143.280058
RightHand 10.421106 -0.000000 -6.148682
RightHandThumb1 -24.326973 -0.000000 -32.862282
LeftShoulder -21.159550 -9.558928 52.506136
LeftArm 29.928072 -67.073755 -27.794185
LeftForeArm -60.269139 -0.000000 116.111219
LeftHand -19.059610 -0.000000 4.355638
LeftHandThumb1 -26.253704 0.000000 33.147579
Head 19.543395 -6.791839 -4.878527
893
root -3.024048 33.239717 0.417073 5.257509 0.026218 2.694904
RightUpLeg 3.035450 -6.224935 -1.889997
RightLeg -0.241659 -0.000000 0.000000
RightFoot -11.481756 -4.429295 3.564872
RightToeBase 5.544372 -0.000000 -0.000000
LeftUpLeg 1.980920 2.364783 1.184049
LeftLeg 1.559949 -0.000000 -0.000000
LeftFoot -10.272690 1.974493 -9.606953
LeftToeBase 8.468494 -0.000000 -0.000000
Spine -9.668495 -0.606077 -1.266417
RightShoulder -29.869561 20.383921 -61.726154
RightArm 125.337616 46.069727 89.745886
RightForeArm 4.364690 0.000000 143.274289
RightHand 10.402956 -0.000000 -6.145861
RightHandThumb1 -24.326973 -0.000000 -32.862282
LeftShoulder -21.167251 -9.567771 52.497060
LeftArm 29.932065 -67.053315 -27.789652
LeftForeArm -60.265708 -0.000000 116.110124
LeftHand -19.072740 0.000000 4.339796
LeftHandThumb1 -26.253704 0.000000 33.147579
Head 19.555950 -6.819454 -4.896955
894
root -3.022023 33.239674 0.417294 5.257054 0.026500 2.695761
RightUpLeg 3.037255 -6.188683 -1.892245
RightLeg -0.243742 -0.000000 0.000000
RightFoot -11.489263 -4.464994 3.573700
RightToeBase 5.549791 -0.000000 -0.000000
LeftUpLeg 1.985016 2.358558 1.180277
LeftLeg 1.553901 -0.000000 -0.000000
LeftFoot -10.274734 1.971230 -9.615131
LeftToeBase 8.450040 -0.000000 -0.000000
Spine -9.667959 -0.604639 -1.254853
RightShoulder -29.879832 20.397999 -61.743539
RightArm 125.315402 46.069662 89.701215
RightForeArm 4.373113 0.000000 143.262008
RightHand 10.404705 -0.000000 -6.152630
RightHandThumb1 -24.326973 -0.000000 -32.862282
LeftShoulder -21.158722 -9.630008 52.524492
LeftArm 29.731512 -66.997550 -27.626456
LeftForeArm -60.291409 -0.000000 116.134262
LeftHand -19.065086 -0.000000 4.375438
LeftHandThumb1 -26.253704 0.000000 33.147579
Head 19.556305 -6.839229 -4.922307
895
root -3.019662 33.239496 0.417508 5.256313 0.030556 2.698400
RightUpLeg 3.039648 -6.206659 -1.898952
RightLeg -0.246231 -0.000000 0.000000
RightFoot -11.488658 -4.453694 3.588128
RightToeBase 5.565135 -0.000000 -0.000000
LeftUpLeg 1.984961 2.344358 1.174680
LeftLeg 1.555241 -0.000000 -0.000000
LeftFoot -10.272979 1.975346 -9.607789
LeftToeBase 8.438225 -0.000000 -0.000000
Spine -9.678702 -0.557552 -1.245591
RightShoulder -29.888747 20.315579 -61.745215
RightArm 125.349159 46.074084 89.685131
RightForeArm 4.352608 -0.000000 143.247273
RightHand 10.391193 -0.000000 -6.103163
RightHandThumb1 -24.326973 -0.000000 -32.862282
LeftShoulder -21.101143 -9.655963 52.480820
LeftArm 29.668426 -67.008482 -27.553598
LeftForeArm -60.285698 -0.000000 116.141151
LeftHand -19.039020 -0.000000 4.407861
LeftHandThumb1 -26.253704 0.000000 33.147579
Head 19.594672 -6.908212 -4.977986
896
root -3.017746 33.238830 0.417932 5.256013 0.026336 2.705308
RightUpLeg 3.036117 -6.204388 -1.909419
RightLeg -0.238132 -0.000000 0.000000
RightFoot -11.497196 -4.450288 3.567815
RightToeBase 5.521382 -0.000000 -0.000000
LeftUpLeg 1.984074 2.363043 1.164430
LeftLeg 1.560056 -0.000000 -0.000000
LeftFoot -10.278463 1.969508 -9.607746
LeftToeBase 8.464813 -0.000000 -0.000000
Spine -9.661581 -0.645616 -1.277280
RightShoulder -29.879568 20.483670 -61.736103
RightArm 125.235739 46.071228 89.629790
RightForeArm 4.414627 -0.000000 143.264259
RightHand 10.392166 -0.000000 -6.105466
RightHandThumb1 -24.326973 -0.000000 -32.862282
LeftShoulder -21.219009 -9.558756 52.563584
LeftArm 29.821124 -66.994347 -27.722172
LeftForeArm -60.266929 0.000000 116.150963
LeftHand -19.049878 -0.000000 4.466401
LeftHandThumb1 -26.253704 0.000000 33.147579
Head 19.535169 -6.856891 -4.828332
897
root -3.016359 33.238264 0.418126 5.255775 0.026217 2.704498
RightUpLeg 3.034071 -6.193501 -1.910901
RightLeg -0.231822 -0.000000 0.000000
RightFoot -11.502172 -4.463248 3.578577
RightToeBase 5.529790 -0.000000 -0.000000
LeftUpLeg 1.985767 2.365655 1.163477
LeftLeg 1.558119 -0.000000 -0.000000
LeftFoot -10.287290 1.965301 -9.598327
LeftToeBase 8.461592 -0.000000 -0.000000
Spine -9.658669 -0.654736 -1.270213
RightShoulder -29.884016 20.500640 -61.748016
RightArm 125.207099 46.073713 89.601433
RightForeArm 4.386695 0.000000 143.263080
RightHand 10.399705 0.000000 -6.122738
RightHandThumb1 -24.326973 -0.000000 -32.862282
LeftShoulder -21.223332 -9.583671 52.576125
LeftArm 29.758803 -67.008208 -27.670026
LeftForeArm -60.499549 -0.000000 116.104903
LeftHand -19.085657 0.000000 4.177925
LeftHandThumb1 -26.253704 0.000000 33.147579
Head 19.534159 -6.860851 -4.831202
898
root -3.013249 33.238497 0.417436 5.254916 0.033949 2.706500
RightUpLeg 3.031267 -6.219899 -1.919230
RightLeg -0.224577 -0.000000 0.000000
RightFoot -11.510497 -4.440606 3.581296
RightToeBase 5.574780 -0.000000 -0.000000
LeftUpLeg 1.981370 2.348243 1.156405
LeftLeg 1.562643 -0.000000 -0.000000
LeftFoot -10.286553 1.966427 -9.610833
LeftToeBase 8.480555 -0.000000 -0.000000
Spine -9.662842 -0.652054 -1.260812
RightShoulder -29.884888 20.503789 -61.759976
RightArm 125.179230 46.072600 89.555261
RightForeArm 4.394599 -0.000000 143.252568
RightHand 10.399863 -0.000000 -6.102063
RightHandThumb1 -24.326973 -0.000000 -32.862282
LeftShoulder -21.218708 -9.587523 52.563938
LeftArm 29.792652 -66.991592 -27.701063
LeftForeArm -60.501352 -0.000000 116.102173
LeftHand -19.073096 -0.000000 4.142309
LeftHandThumb1 -26.253704 0.000000 33.147579
Head 19.576581 -6.895747 -4.875308
899
root -3.012689 33.238630 0.421556 5.216942 0.031730 2.706070
RightUpLeg 3.082376 -6.223466 -1.924917
RightLeg -0.238483 -0.000000 0.000000
RightFoot -11.502521 -4.433419 3.577554
RightToeBase 5.547312 -0.000000 -0.000000
LeftUpLeg 2.034129 2.349154 1.156504
LeftLeg 1.548779 -0.000000 -0.000000
LeftFoot -10.283461 1.969245 -9.614672
LeftToeBase 8.481914 -0.000000 -0.000000
Spine -9.631656 -0.638108 -1.268203
RightShoulder -29.885550 20.473164 -61.741150
RightArm 125.193447 46.068092 89.559538
RightForeArm 4.395916 -0.000000 143.254379
RightHand 10.397629 -0.000000 -6.077579
RightHandThumb1 -24.326973 -0.000000 -32.862282
LeftShoulder -21.225291 -9.569175 52.538624
LeftArm 29.919156 -66.984899 -27.773834
LeftForeArm -60.488175 -0.000000 116.087669
LeftHand -19.086869 -0.000000 4.210184
LeftHandThumb1 -26.253704 0.000000 33.147579
Head 19.603082 -6.911601 -4.854283
